<svg width="21" height="21" viewBox="0 0 21 21" fill="none" xmlns="http://www.w3.org/2000/svg">
<path d="M10.5 10.5C12.9162 10.5 14.875 8.54125 14.875 6.125C14.875 3.70875 12.9162 1.75 10.5 1.75C8.08375 1.75 6.125 3.70875 6.125 6.125C6.125 8.54125 8.08375 10.5 10.5 10.5Z" stroke="black" stroke-width="2"/>
<path d="M14.875 12.25H15.183C15.8227 12.2502 16.4403 12.4839 16.9198 12.9074C17.3993 13.3308 17.7077 13.9147 17.787 14.5495L18.1291 17.283C18.1599 17.5293 18.1379 17.7792 18.0647 18.0163C17.9915 18.2535 17.8687 18.4723 17.7044 18.6583C17.5402 18.8443 17.3382 18.9933 17.112 19.0953C16.8858 19.1973 16.6404 19.2501 16.3922 19.25H4.60775C4.35958 19.2501 4.11424 19.1973 3.88801 19.0953C3.66178 18.9933 3.45984 18.8443 3.29558 18.6583C3.13132 18.4723 3.0085 18.2535 2.93528 18.0163C2.86206 17.7792 2.8401 17.5293 2.87087 17.283L3.21212 14.5495C3.29148 13.9144 3.60011 13.3303 4.07998 12.9068C4.55984 12.4833 5.17788 12.2498 5.81787 12.25H6.125" stroke="black" stroke-width="2" stroke-linecap="round" stroke-linejoin="round"/>
</svg>
